<svg id="b332b666-061f-438b-809a-94306cad1123" data-name="Capa 1" xmlns="http://www.w3.org/2000/svg" viewBox="0 0 761.56 326.31"><defs><style>.b8366074-fe1c-4b68-8df8-2ea722c8e450,.fab2d132-0da2-47c4-8805-7e3ec4c1f66e{fill:#fff;}.afdc8017-0ea9-43d2-a4e0-c59fe2ddda44,.fab2d132-0da2-47c4-8805-7e3ec4c1f66e{stroke:#4183c4;}.afdc8017-0ea9-43d2-a4e0-c59fe2ddda44,.eb27026c-8af5-4985-af87-b59214d52443,.fab2d132-0da2-47c4-8805-7e3ec4c1f66e{stroke-miterlimit:10;stroke-width:5px;}.a22b0457-8597-40df-9140-8cedc0c3a2e6{fill:#4183c4;}.afdc8017-0ea9-43d2-a4e0-c59fe2ddda44,.eb27026c-8af5-4985-af87-b59214d52443{fill:none;}.eb27026c-8af5-4985-af87-b59214d52443{stroke:#fff;}</style></defs><ellipse class="fab2d132-0da2-47c4-8805-7e3ec4c1f66e" cx="400.31" cy="300.35" rx="379.2" ry="158.44" transform="translate(-41.38 -105.61) rotate(-4.4)"/><path class="a22b0457-8597-40df-9140-8cedc0c3a2e6" d="M664.38,367.52c-.86-5.28-3.55-10.25-6.37-14.19-.78-1.09-1.57-2.08-2.35-3,0,.26,0,.5,0,.73.08.65.17,1.3.21,1.9a51.8,51.8,0,0,1,.25,5.39l0,1.29a9.25,9.25,0,0,1-.09,1.48,23.65,23.65,0,0,1-.19,2.53A46.15,46.15,0,0,1,653.34,374,61.35,61.35,0,0,1,647,386.68q8.2-3.58,15.9-7.33c.54-1.51,1-2.82,1.25-3.81A19.75,19.75,0,0,0,664.38,367.52Z" transform="translate(-19.53 -137.19)"/><path class="a22b0457-8597-40df-9140-8cedc0c3a2e6" d="M571.48,411.94a25.38,25.38,0,0,1-4.22-2.3,36,36,0,0,1-5.58-4.83,42.56,42.56,0,0,1-5.55-7.7,45.7,45.7,0,0,1-4.75-12.68s0-.06,0-.08a44.65,44.65,0,0,1-.9-6.3l-.06-1.13c0-1-.18-2-.16-3.07a37.5,37.5,0,0,1,1-7.38c.3-1.47.61-2.08.91-3.18l.24-.73,0-.19.26-.59.21-.46.87-1.83a35.91,35.91,0,0,1,6.89-8.83c-.57,0-1.1-.05-1.66-.08a31.32,31.32,0,0,1-5.59-.46,47.23,47.23,0,0,1-6.25-1.6c-1.14-.41-1.82-.61-3.21-1.19l-2.49-1.25a35.57,35.57,0,0,1-10.82-8.4c-6.27-7.19-8.37-16.38-8.72-24.22A105,105,0,0,1,524,291c1.3-7,2.86-13.77,4.45-20.2s3.07-12.62,4.32-18.47a125.41,125.41,0,0,0,2.62-16.52,47.25,47.25,0,0,0-2-13.5,88.79,88.79,0,0,0-2.91-9.38c-1-2.44-2-4.28-2.66-5.59s-1.18-2-1.18-2v-.06a3.12,3.12,0,0,1,1.12-4.19,3.29,3.29,0,0,1,3,0,19.5,19.5,0,0,1,2.39,1.68,23.13,23.13,0,0,1,5.22,6.33A28.41,28.41,0,0,1,542,220.91c.44,4.7-.25,9.84-.62,15.21-.17,5.48-.45,11.33-1.14,17.45s-1.54,12.45-2.44,19-1.73,13.26-2.26,19.93a78.26,78.26,0,0,0,.48,19.55c1.09,6.07,3.4,11.13,6.85,14a19.14,19.14,0,0,0,5.94,3.4l2.21.77c.18,0,1.12.29,1.56.38a20.53,20.53,0,0,0,3.48.63,15.76,15.76,0,0,0,11.13-3.35,27,27,0,0,0,4.55-4.42,47.38,47.38,0,0,0,3.81-5.36,63.74,63.74,0,0,0,4.59-9.22c.84-2,1.57-4,2.18-5.79a4.75,4.75,0,0,0,1.3.09,5.2,5.2,0,0,0,1,0,11.36,11.36,0,0,0,5.11-1.58,1,1,0,0,0,.29-.2s.06,0,.06-.06a13.26,13.26,0,0,0,4.57-5,17.16,17.16,0,0,0,1.88-9.35,17.83,17.83,0,0,0-2.24-7.64,18.05,18.05,0,0,0-3.15-3.84,12.16,12.16,0,0,0-8.61-2.91,15.72,15.72,0,0,0-1.77.25v-.11h0c0-.06,0-.15,0-.21a9.26,9.26,0,0,1,0-1.41c0-.43.06-.86.1-1.24a15.87,15.87,0,0,1,1.67-6.07c3.18-6.42,11.81-10.44,33-11.89s30.31,1.36,34.33,7.29h.06a17.13,17.13,0,0,1,2.43,5.8l.26,1.2a7.43,7.43,0,0,1,.18,1.71,17.6,17.6,0,0,0-1.78,0,12.08,12.08,0,0,0-8.13,4.06,15.54,15.54,0,0,0-2.6,4.16,17.14,17.14,0,0,0-1.24,7.95,16.94,16.94,0,0,0,3.13,8.93v.07a13.79,13.79,0,0,0,5.33,4.36v.06h.06a.87.87,0,0,1,.2.12c.2.08.38.11.58.18a12.39,12.39,0,0,0,4.75.67,6.42,6.42,0,0,0,1-.13,4.33,4.33,0,0,0,1.26-.28,61.13,61.13,0,0,0,3,5.45,69.13,69.13,0,0,0,5.74,8.51,47.53,47.53,0,0,0,4.57,4.85,28.83,28.83,0,0,0,5,3.71,15.92,15.92,0,0,0,11.54,1.79,18.28,18.28,0,0,0,3.31-1.09c.48-.16,1.37-.59,1.55-.6l2.08-1.06a18.83,18.83,0,0,0,5.36-4.17c3.09-3.35,4.69-8.68,4.94-14.84a78.13,78.13,0,0,0-2.19-19.43c-1.43-6.54-3.22-13-5-19.43s-3.5-12.53-4.95-18.51-2.58-11.74-3.51-17.14c-1.09-5.27-2.48-10.27-2.74-15a29.31,29.31,0,0,1,1.54-10.87,327,327,0,0,0-38.89-15,478.25,478.25,0,0,1,6.67,60.41c-9.65-6.59-24-7-38.72-6s-28.94,3.33-37.61,11.23a.49.49,0,0,0,0-.12s0,0-.05,0c-.12-1.42-.18-2.86-.28-4.28a483,483,0,0,1-.4-72.91c.12-1.66.25-3.3.38-4.94-54.71-9.11-118.42-12.15-186-7.53C194.17,174.7,39.12,247.85,44.37,324.65S213.2,452.8,409.72,439.36c59.2-4.05,114.63-13.52,163.06-26.87Zm86.41-133.07a10.54,10.54,0,0,1,1,3.92,9.64,9.64,0,0,1-3.32,8.39l-.21.14a5.89,5.89,0,0,1-1,.68,5.1,5.1,0,0,1-1.63.42h-.06a5.88,5.88,0,0,1-4.35-1.67,11.09,11.09,0,0,1-2.41-11.93c1-2.65,3.06-4.57,5.51-4.74a9.21,9.21,0,0,1,1.17,0v.06C654.83,274.47,656.8,276.3,657.89,278.87Zm-80.74,5.46c.8-2.7,2.51-4.72,4.68-5.3V279a9.23,9.23,0,0,1,1.15-.2c2.51-.17,4.77,1.46,6.11,4a11.11,11.11,0,0,1,1.37,4.69,10.24,10.24,0,0,1-2.14,7.33,5.5,5.5,0,0,1-4.08,2.31h-.06a5.05,5.05,0,0,1-1.67-.19c-3.06-.77-5.51-4.23-5.8-8.51A10.89,10.89,0,0,1,577.15,284.33Z" transform="translate(-19.53 -137.19)"/><path class="a22b0457-8597-40df-9140-8cedc0c3a2e6" d="M578,396.32c-1.5-2.7-3.85-5-6.21-9.5a34.08,34.08,0,0,1-3.68-13.14,43.28,43.28,0,0,1,.68-10.83c-.26.17-.45.34-.68.51a19.85,19.85,0,0,0-2.88,2.93l-.6.89-.15.22,0,.06,0,0c.07-.15-.17.38.14-.34l-.09.18-.33.69a24.33,24.33,0,0,0-1.17,2.57,26.83,26.83,0,0,0-1.28,4.37,35.44,35.44,0,0,0,2,18.54,33.43,33.43,0,0,0,3.53,6.85,29,29,0,0,0,3.82,4.47,20.31,20.31,0,0,0,3,2.24l1.13.71.25.16a2.68,2.68,0,0,1,1.07,3.4l-.1.17,5.21-1.49C582.1,405.51,580.7,400.83,578,396.32Z" transform="translate(-19.53 -137.19)"/><path class="a22b0457-8597-40df-9140-8cedc0c3a2e6" d="M643,371.14a35.56,35.56,0,0,0,.51-7.72c0-.43-.1-1.46-.15-2.2a3.36,3.36,0,0,0-.12-.91l-.19-1a16,16,0,0,0-.63-3,6.26,6.26,0,0,0-.27-1.15,28.7,28.7,0,0,0-1.61-4.74,40.6,40.6,0,0,0-2.88-5.39,46.82,46.82,0,0,1-31.3,2.14A40.9,40.9,0,0,0,604.2,353a29.36,29.36,0,0,0-1,4.92c0,.37-.07.74-.1,1.17-.12,1-.17,2-.22,3v1a3.89,3.89,0,0,0,0,.92c0,.73,0,1.78.09,2.2a32.45,32.45,0,0,0,1.63,7.57,51.11,51.11,0,0,0,6.62,13.36,32.07,32.07,0,0,0,7,7.57,14.88,14.88,0,0,0,2.24,1.38,3.89,3.89,0,0,1,.82.37l.51.21a.57.57,0,0,1,.13.08q6-2.24,11.8-4.54a37.76,37.76,0,0,0,4.48-6.92A51.22,51.22,0,0,0,643,371.14Z" transform="translate(-19.53 -137.19)"/><path class="a22b0457-8597-40df-9140-8cedc0c3a2e6" d="M756,276c-1.91-27.84-24.63-52.34-62.19-71.62-.38,2.05-.7,4.41-1,7.1a47,47,0,0,0-.11,13.64,125,125,0,0,0,4.84,16c2,5.64,4.35,11.56,6.8,17.72s4.92,12.61,7.16,19.4a105.5,105.5,0,0,1,5,22c.78,7.8,0,17.2-5.28,25.17a36.46,36.46,0,0,1-9.58,9.8l-2.29,1.57c-1.36.77-2,1.06-3,1.62a48.7,48.7,0,0,1-6,2.43,32.83,32.83,0,0,1-7.13,1.46c.28.22.5.44.76.66a34.48,34.48,0,0,1,7.26,7.22l1.12,1.7.27.42.34.55.08.18.33.7c.45,1,.84,1.6,1.34,3a33,33,0,0,1,1.37,4.16C735.76,335.31,758.09,305.92,756,276Z" transform="translate(-19.53 -137.19)"/><path class="a22b0457-8597-40df-9140-8cedc0c3a2e6" d="M683.74,362.32a25,25,0,0,0-1.5-2.38l-.43-.64-.11-.16.19.31,0,0,0,0-.19-.2-.71-.8a20.55,20.55,0,0,0-3.93-3c.2.75.33,1.44.51,2.17a40.66,40.66,0,0,1,1.57,8.51,38.08,38.08,0,0,1,0,4.89q3.45-1.91,6.77-3.84c-.07-.22-.13-.44-.2-.66A26.07,26.07,0,0,0,683.74,362.32Z" transform="translate(-19.53 -137.19)"/><path class="a22b0457-8597-40df-9140-8cedc0c3a2e6" d="M614.41,399.46a39.59,39.59,0,0,1-9.31-7.19A60.91,60.91,0,0,1,594.67,378a42.92,42.92,0,0,1-3.93-9.93,24.32,24.32,0,0,1-.54-2.48,10.33,10.33,0,0,1-.28-1.45l-.21-1.28c-.25-1.76-.37-3.53-.49-5.37-.05-.76-.05-1.55-.05-2.36l-.37.37c-.08.1-.16.23-.24.34-.45.75-.9,1.49-1.34,2.33-2.26,4.29-4.25,9.58-4.38,14.93a19.83,19.83,0,0,0,1.36,7.9c.86,2.21,3.18,5.91,4.79,10.1a37.29,37.29,0,0,1,2.76,13,23.92,23.92,0,0,1-.11,2.93Q603.34,403.38,614.41,399.46Z" transform="translate(-19.53 -137.19)"/><path class="b8366074-fe1c-4b68-8df8-2ea722c8e450" d="M87,328.81a69.71,69.71,0,0,1-13.28-2.5,34.77,34.77,0,0,1-10.18-4.79,22.06,22.06,0,0,1-9.62-17.39,24,24,0,0,1,1.68-10.93,27,27,0,0,1,5.93-9,30,30,0,0,1,9.2-6.26,33.32,33.32,0,0,1,11.44-2.8,40.59,40.59,0,0,1,8.1.27,36.13,36.13,0,0,1,7.7,1.89,27.75,27.75,0,0,1,6.73,3.57,21.92,21.92,0,0,1,5.17,5.27,6.12,6.12,0,0,1,1.06,2.46,7.62,7.62,0,0,1,0,2.52,8.13,8.13,0,0,1-.72,2.37,7.51,7.51,0,0,1-1.3,1.93,7.62,7.62,0,0,1-2.07,1.64,8.24,8.24,0,0,1-2.74.94,10.18,10.18,0,0,1-3.07,0A8.07,8.07,0,0,1,98,296.88L94.62,295a19.13,19.13,0,0,0-3-1.36,14.44,14.44,0,0,0-3.39-.76,26.73,26.73,0,0,0-4.61,0,18.55,18.55,0,0,0-5.29,1.08,12.82,12.82,0,0,0-3.84,2.21,8.67,8.67,0,0,0-2.31,3.06,7.5,7.5,0,0,0-.64,3.62,6.05,6.05,0,0,0,1.53,3.89A9.58,9.58,0,0,0,77,309a33.61,33.61,0,0,0,6.13,1.42q3.61.54,8.3,1.1a61.28,61.28,0,0,1,9.15,2.14,28.74,28.74,0,0,1,8.19,4,21.56,21.56,0,0,1,6,6.64,21.82,21.82,0,0,1,2.79,9.81A24.35,24.35,0,0,1,116,344.92a27.13,27.13,0,0,1-6,9.1,31,31,0,0,1-9.58,6.53,36.24,36.24,0,0,1-12.45,3,36.83,36.83,0,0,1-10.18-.67,38.1,38.1,0,0,1-9-3.07,32.19,32.19,0,0,1-7.33-4.92,24.5,24.5,0,0,1-5.07-6.24,11.2,11.2,0,0,1-1.43-3.93,8.35,8.35,0,0,1,.18-3.45,7.83,7.83,0,0,1,1.44-2.83,9.21,9.21,0,0,1,2.38-2.11,7.53,7.53,0,0,1,6.16-1.17c2,.55,4.07,2,6.28,4.41a19,19,0,0,0,6.93,5.06,20.09,20.09,0,0,0,9.12,1.21,20.48,20.48,0,0,0,4.78-.9,15.37,15.37,0,0,0,4.13-2,9.87,9.87,0,0,0,2.81-2.89,6.08,6.08,0,0,0,.87-3.67,6.53,6.53,0,0,0-1.43-4,8,8,0,0,0-3.12-2.14,16.44,16.44,0,0,0-4.09-1C89.88,329.1,88.42,329,87,328.81Z" transform="translate(-19.53 -137.19)"/><path class="b8366074-fe1c-4b68-8df8-2ea722c8e450" d="M187.25,369.92a8.68,8.68,0,0,1-.47,3.55,9.15,9.15,0,0,1-1.74,3,9.32,9.32,0,0,1-2.72,2.13,8.79,8.79,0,0,1-3.48,1,8.67,8.67,0,0,1-3.55-.48,8.07,8.07,0,0,1-2.85-1.75,9.13,9.13,0,0,1-2-2.76,9.66,9.66,0,0,1-.89-3.46l-1.23-17a31.85,31.85,0,0,1-7.13,3.42,32.3,32.3,0,0,1-20.72-.12,32.62,32.62,0,0,1-10.73-6.25,33.2,33.2,0,0,1-7.63-9.85,32.45,32.45,0,0,1-1.73-25.17,33.27,33.27,0,0,1,6.23-10.76,32.55,32.55,0,0,1,9.78-7.66,32.36,32.36,0,0,1,22.76-2.44,32.9,32.9,0,0,1,9.24,4A14.23,14.23,0,0,1,171,295a5.78,5.78,0,0,1,4.1-1.85q3.73-.26,5.46,2a11.21,11.21,0,0,1,2,6.11ZM165.8,325.68a14,14,0,0,0-1.58-5.66,15.39,15.39,0,0,0-3.51-4.47,15.06,15.06,0,0,0-4.9-2.84,14.79,14.79,0,0,0-11.41.78A14.67,14.67,0,0,0,140,317a15.33,15.33,0,0,0-2.8,4.9,14.93,14.93,0,0,0,.78,11.48,15.38,15.38,0,0,0,3.45,4.47,14.54,14.54,0,0,0,10.68,3.6,14.17,14.17,0,0,0,5.6-1.54,15,15,0,0,0,4.47-3.48,15.51,15.51,0,0,0,2.87-4.9A14.06,14.06,0,0,0,165.8,325.68Z" transform="translate(-19.53 -137.19)"/><path class="b8366074-fe1c-4b68-8df8-2ea722c8e450" d="M208,323.82a14,14,0,0,0,1.42,5.36,13,13,0,0,0,3.25,4.14,14,14,0,0,0,10.19,3.26,12.09,12.09,0,0,0,4.92-1.32,11.6,11.6,0,0,0,3.62-2.95,12.5,12.5,0,0,0,2.24-4.21,16.2,16.2,0,0,0,.7-5.2l-.73-11.69-.89-13a8,8,0,0,1,.51-3.48,9.42,9.42,0,0,1,1.78-2.92,9.13,9.13,0,0,1,2.72-2.07,9,9,0,0,1,3.42-.91,8.35,8.35,0,0,1,3.44.44,8.62,8.62,0,0,1,2.85,1.69,8.92,8.92,0,0,1,2,2.66,8.66,8.66,0,0,1,.92,3.38l3.13,45.77a11.28,11.28,0,0,1-1.14,6.32q-1.4,2.52-5.13,2.78a6.58,6.58,0,0,1-3.88-.86,9.59,9.59,0,0,1-3-2.9,30.15,30.15,0,0,1-7.45,4.22,29.45,29.45,0,0,1-8.84,1.94,30.62,30.62,0,0,1-12.43-1.64,32.61,32.61,0,0,1-10.52-6.07,31.69,31.69,0,0,1-7.47-9.55,30.67,30.67,0,0,1-3.32-12.09l-1.62-23.7a8.74,8.74,0,0,1,.44-3.48,8.6,8.6,0,0,1,1.68-2.91,8.73,8.73,0,0,1,6-3,8.61,8.61,0,0,1,3.48.44,9.14,9.14,0,0,1,2.94,1.68,8.89,8.89,0,0,1,2.13,2.65,8.36,8.36,0,0,1,.95,3.38Z" transform="translate(-19.53 -137.19)"/><path class="b8366074-fe1c-4b68-8df8-2ea722c8e450" d="M256.84,272.1a9.39,9.39,0,0,1,.49-3.75,9.25,9.25,0,0,1,1.84-3.13A10,10,0,0,1,262,263a9,9,0,0,1,3.62-1,9.2,9.2,0,0,1,3.68.5,10.51,10.51,0,0,1,3.19,1.79,9.09,9.09,0,0,1,2.28,2.85,9.23,9.23,0,0,1,1,3.65,9,9,0,0,1-.5,3.72,9.46,9.46,0,0,1-1.86,3.13,10.23,10.23,0,0,1-2.92,2.25,9.29,9.29,0,0,1-3.58,1,9,9,0,0,1-3.72-.49,9.76,9.76,0,0,1-3.13-1.84,9.6,9.6,0,0,1-2.24-2.85A8.91,8.91,0,0,1,256.84,272.1ZM280,340.8a8.83,8.83,0,0,1-11.64,8.91,9.3,9.3,0,0,1-2.94-1.67,8.93,8.93,0,0,1-2.13-2.66,8.4,8.4,0,0,1-.95-3.38l-3.12-45.64a8.38,8.38,0,0,1,.48-3.47,8.9,8.9,0,0,1,4.51-5,9.19,9.19,0,0,1,3.45-.91,8.35,8.35,0,0,1,3.44.44,8.86,8.86,0,0,1,2.88,1.68,8.42,8.42,0,0,1,2,2.66,9.08,9.08,0,0,1,.88,3.39Z" transform="translate(-19.53 -137.19)"/><path class="b8366074-fe1c-4b68-8df8-2ea722c8e450" d="M352.16,336a11.2,11.2,0,0,1-1.13,6.32q-1.41,2.52-5.14,2.78a6.1,6.1,0,0,1-2.79-.39,7.7,7.7,0,0,1-2-1.23,6.45,6.45,0,0,1-1.3-1.48c-.3-.5-.54-.91-.69-1.22l-.86-1.58a32.93,32.93,0,0,1-9,5.94,32.34,32.34,0,0,1-23.54,1A32.47,32.47,0,0,1,295,339.83a33,33,0,0,1-7.63-9.84,32.39,32.39,0,0,1-1.72-25.17,33.25,33.25,0,0,1,6.22-10.76,32.55,32.55,0,0,1,9.78-7.66A31.38,31.38,0,0,1,314.08,283a31.06,31.06,0,0,1,8.81.62,32.53,32.53,0,0,1,8.08,2.93l-1.24-19.22a9.62,9.62,0,0,1,.4-3.55,9.23,9.23,0,0,1,1.57-3,8,8,0,0,1,2.58-2.12,8.44,8.44,0,0,1,3.45-.95,8.69,8.69,0,0,1,3.58.47,9.21,9.21,0,0,1,3,1.74,9.07,9.07,0,0,1,2.13,2.75,8.8,8.8,0,0,1,.95,3.45ZM331,314.38a13.79,13.79,0,0,0-1.58-5.66,15.26,15.26,0,0,0-3.51-4.47,15.06,15.06,0,0,0-4.9-2.84,14.79,14.79,0,0,0-11.41.78,14.67,14.67,0,0,0-4.44,3.48,15.33,15.33,0,0,0-2.8,4.9,14.88,14.88,0,0,0,.79,11.48,15.18,15.18,0,0,0,3.44,4.47,14.67,14.67,0,0,0,16.28,2.06,15,15,0,0,0,4.47-3.48,15.51,15.51,0,0,0,2.87-4.9A14.06,14.06,0,0,0,331,314.38Z" transform="translate(-19.53 -137.19)"/><path class="b8366074-fe1c-4b68-8df8-2ea722c8e450" d="M422.25,331.2a11.3,11.3,0,0,1-1.14,6.32q-1.39,2.52-5.13,2.77a5.81,5.81,0,0,1-2.79-.39,7.51,7.51,0,0,1-2-1.22,6.67,6.67,0,0,1-1.3-1.48c-.31-.51-.54-.91-.7-1.22l-.85-1.58a33.24,33.24,0,0,1-9,5.94,32.34,32.34,0,0,1-23.54,1A32.65,32.65,0,0,1,365.1,335a33.27,33.27,0,0,1-7.64-9.85A32.49,32.49,0,0,1,355.74,300,33.27,33.27,0,0,1,362,289.27a32.54,32.54,0,0,1,9.77-7.67,31.42,31.42,0,0,1,12.43-3.4,31.06,31.06,0,0,1,8.81.62,32.67,32.67,0,0,1,8.08,2.93l-1.25-19.23a9.57,9.57,0,0,1,.41-3.54,9.09,9.09,0,0,1,1.57-3,8.25,8.25,0,0,1,2.58-2.12,9.06,9.06,0,0,1,7-.48,9.32,9.32,0,0,1,3,1.74,9.11,9.11,0,0,1,2.13,2.76,8.75,8.75,0,0,1,1,3.45Zm-21.13-21.62a14.15,14.15,0,0,0-1.58-5.66,15.39,15.39,0,0,0-3.51-4.46,14.89,14.89,0,0,0-4.9-2.84,14.61,14.61,0,0,0-15.85,4.26,15,15,0,0,0-2.8,4.9,14.91,14.91,0,0,0,.78,11.47,15.12,15.12,0,0,0,3.45,4.48,14.51,14.51,0,0,0,10.68,3.6,14.3,14.3,0,0,0,5.59-1.54,15,15,0,0,0,4.47-3.48,15.58,15.58,0,0,0,2.88-4.91A14.18,14.18,0,0,0,401.12,309.58Z" transform="translate(-19.53 -137.19)"/><path class="b8366074-fe1c-4b68-8df8-2ea722c8e450" d="M425.54,260.56a9.34,9.34,0,0,1,2.32-6.88,10.19,10.19,0,0,1,2.86-2.21,9.07,9.07,0,0,1,3.61-1,9.23,9.23,0,0,1,3.69.5,10.33,10.33,0,0,1,3.19,1.8,8.94,8.94,0,0,1,2.28,2.84,9.4,9.4,0,0,1,1,3.65A9,9,0,0,1,444,263a9.32,9.32,0,0,1-1.87,3.13,10.05,10.05,0,0,1-2.91,2.25,9.39,9.39,0,0,1-7.3.5,9.58,9.58,0,0,1-3.13-1.84,9.68,9.68,0,0,1-2.24-2.84A9,9,0,0,1,425.54,260.56Zm23.12,68.7A8.81,8.81,0,0,1,437,338.17a9.35,9.35,0,0,1-2.95-1.67,9.15,9.15,0,0,1-2.12-2.65,8.29,8.29,0,0,1-.95-3.39l-3.12-45.63a8.41,8.41,0,0,1,.48-3.48,8.78,8.78,0,0,1,4.5-5,9.11,9.11,0,0,1,3.45-.92,8.4,8.4,0,0,1,3.45.44,9.08,9.08,0,0,1,2.87,1.68,8.45,8.45,0,0,1,2,2.66,9.33,9.33,0,0,1,.88,3.39Z" transform="translate(-19.53 -137.19)"/><path class="b8366074-fe1c-4b68-8df8-2ea722c8e450" d="M473.38,312.55a13.65,13.65,0,0,0,5.82,4.83,16,16,0,0,0,7.55,1.22,21.26,21.26,0,0,0,4.63-.76,10.06,10.06,0,0,0,3.33-1.69,11.25,11.25,0,0,1,4.51-2.36,8.06,8.06,0,0,1,4.2.12,8.69,8.69,0,0,1,2.59,1.36,9.17,9.17,0,0,1,2,2.15,9.84,9.84,0,0,1,1.28,2.74,8.76,8.76,0,0,1,.34,3,8.2,8.2,0,0,1-.81,3.06,9.62,9.62,0,0,1-2.13,2.84,32.24,32.24,0,0,1-2.88,2.28,22,22,0,0,1-3.88,2.14,31.42,31.42,0,0,1-5.17,1.68,41.16,41.16,0,0,1-6.82,1,31.57,31.57,0,0,1-12.81-1.68,33.24,33.24,0,0,1-18.57-16.06,32.2,32.2,0,0,1-1.72-25.23,32.53,32.53,0,0,1,6.33-10.77,33.49,33.49,0,0,1,9.88-7.64,31.62,31.62,0,0,1,12.46-3.41A32.08,32.08,0,0,1,496.19,273,32.76,32.76,0,0,1,507,279.14a33.41,33.41,0,0,1,7.73,9.68,31.88,31.88,0,0,1,3.6,12.27,8,8,0,0,1-2,6.21,8.73,8.73,0,0,1-6.12,2.74ZM499.74,296a12.22,12.22,0,0,0-5.94-5.63,18.41,18.41,0,0,0-8.73-1.35,16.66,16.66,0,0,0-8.31,2.65,13,13,0,0,0-4.93,6.24Z" transform="translate(-19.53 -137.19)"/><path class="eb27026c-8af5-4985-af87-b59214d52443" d="M411.27,379.51l1.91,27.93a8.81,8.81,0,0,1-.46,3.56,8.5,8.5,0,0,1-1.73,3,8.94,8.94,0,0,1-2.76,2.07,9.53,9.53,0,0,1-3.49.91,9.33,9.33,0,0,1-3.55-.43,8.82,8.82,0,0,1-3-1.68,8.91,8.91,0,0,1-2.12-2.7,8.76,8.76,0,0,1-.93-3.46l-3.46-50.47a9.32,9.32,0,0,1,.41-3.44,9.58,9.58,0,0,1,1.62-3,9.15,9.15,0,0,1,2.7-2.26,8.61,8.61,0,0,1,3.64-1,9.34,9.34,0,0,1,7.35,2.88l31.67,30.74-1.87-27.29a8.46,8.46,0,0,1,.49-3.53,8.82,8.82,0,0,1,1.79-2.95,9,9,0,0,1,2.79-2.07,9.43,9.43,0,0,1,3.48-.91,9,9,0,0,1,3.53.43,8.46,8.46,0,0,1,2.93,1.68,9.05,9.05,0,0,1,2.1,2.68,8.86,8.86,0,0,1,.93,3.43l3.47,50.79a9,9,0,0,1-.43,3.5,8.5,8.5,0,0,1-1.68,3,8.79,8.79,0,0,1-2.76,2.1,9.6,9.6,0,0,1-3.67.95l-.59,0a7,7,0,0,1-3.2-.8,9.88,9.88,0,0,1-2.71-2.24Z" transform="translate(-19.53 -137.19)"/><path class="eb27026c-8af5-4985-af87-b59214d52443" d="M517.66,350.29a8.54,8.54,0,0,1,2.13,2.76,8.93,8.93,0,0,1,.87,3.25,9.06,9.06,0,0,1-.44,3.39,8.94,8.94,0,0,1-1.76,3.08,9.17,9.17,0,0,1-2.78,2.18,8.85,8.85,0,0,1-3.32.95,9.13,9.13,0,0,1-3.44-.36,8.14,8.14,0,0,1-3.07-1.69,17.77,17.77,0,0,0-5.93-3.36,17,17,0,0,0-6.51-.79,15.6,15.6,0,0,0-6.22,1.74,16.79,16.79,0,0,0-5,3.94A17.37,17.37,0,0,0,479,371a16.71,16.71,0,0,0,.8,12.9,17.24,17.24,0,0,0,3.82,5.09,16.72,16.72,0,0,0,5.49,3.34,15.89,15.89,0,0,0,6.68.94,26.08,26.08,0,0,0,5.11-.73,14.52,14.52,0,0,0,4.79-2.32l-.11-1.66-1.34.1a8.48,8.48,0,0,1-3.53-.49,8.87,8.87,0,0,1-2.94-1.79,9.18,9.18,0,0,1-2.08-2.79,9.43,9.43,0,0,1-.91-3.48,9.15,9.15,0,0,1,.44-3.5,8.41,8.41,0,0,1,1.68-3,8.86,8.86,0,0,1,6.11-3l10.43-.71a9.57,9.57,0,0,1,3.53.51,9,9,0,0,1,3,1.7,9.42,9.42,0,0,1,2.11,2.68,8.15,8.15,0,0,1,1,3.38l1,14.93a7.73,7.73,0,0,1-.58,3.67,13.86,13.86,0,0,1-1.91,3.11,42.45,42.45,0,0,1-12.2,8.36,38,38,0,0,1-12.93,3.09,33.31,33.31,0,0,1-17.16-3.64,36,36,0,0,1-13.16-11.52,34.49,34.49,0,0,1-4.09-8,33.54,33.54,0,0,1-1.89-9.14,34.48,34.48,0,0,1,1.73-13.64,35.62,35.62,0,0,1,6.51-11.63,34.56,34.56,0,0,1,10.35-8.32,32.71,32.71,0,0,1,13.27-3.7,35.24,35.24,0,0,1,13.82,1.63A35.89,35.89,0,0,1,517.66,350.29Z" transform="translate(-19.53 -137.19)"/><path id="baeb7bda-f8f1-4d4d-8799-411a48323e2b" data-name="path6316" class="afdc8017-0ea9-43d2-a4e0-c59fe2ddda44" d="M602.89,302c9.28,10.76,23.45,9.79,31.18-2.13" transform="translate(-19.53 -137.19)"/></svg>